<svg width="158" height="173" viewBox="0 0 158 173" fill="none" xmlns="http://www.w3.org/2000/svg">
<rect x="22.5" width="113" height="113" rx="12" fill="url(#paint0_linear_7_251)"/>
<path d="M75.4688 21.3422C68.3335 16.7748 59.8487 14.125 50.75 14.125C45.3909 14.125 40.2389 15.0448 35.4482 16.7381C34.0372 17.2368 33.0938 18.5709 33.0938 20.0675V87.1612C33.0938 88.3075 33.6502 89.3825 34.5861 90.0444C35.522 90.7062 36.721 90.8726 37.8018 90.4906C41.8471 89.0608 46.2037 88.2812 50.75 88.2812C60.1432 88.2812 68.7511 91.6112 75.4688 97.1598V21.3422Z" fill="white"/>
<path d="M82.5312 97.1598C89.2489 91.6112 97.8568 88.2812 107.25 88.2812C111.796 88.2812 116.153 89.0608 120.198 90.4906C121.279 90.8726 122.478 90.7062 123.414 90.0444C124.35 89.3825 124.906 88.3075 124.906 87.1612V20.0675C124.906 18.5709 123.963 17.2368 122.552 16.7381C117.761 15.0448 112.609 14.125 107.25 14.125C98.1513 14.125 89.6665 16.7748 82.5312 21.3422V97.1598Z" fill="white"/>
<path d="M21.7435 138.512C21.6475 139.64 21.5755 140.732 21.5275 141.788C21.5035 142.844 21.4915 143.648 21.4915 144.2C21.4915 144.68 21.5035 145.148 21.5275 145.604C21.5515 146.06 21.5755 146.432 21.5995 146.72H20.7715C20.5075 144.848 20.0755 143.372 19.4755 142.292C18.8995 141.212 18.1795 140.456 17.3155 140.024C16.4755 139.568 15.5395 139.34 14.5075 139.34H13.5355C12.8875 139.34 12.3835 139.4 12.0235 139.52C11.6875 139.616 11.4595 139.832 11.3395 140.168C11.2435 140.504 11.1955 141.032 11.1955 141.752V160.76C11.1955 161.456 11.2435 161.984 11.3395 162.344C11.4595 162.68 11.6875 162.908 12.0235 163.028C12.3835 163.124 12.8875 163.172 13.5355 163.172H15.0115C15.9475 163.172 16.8355 162.932 17.6755 162.452C18.5395 161.948 19.3075 161.108 19.9795 159.932C20.6515 158.732 21.1555 157.112 21.4915 155.072H22.3195C22.2475 155.888 22.2115 156.944 22.2115 158.24C22.2115 158.816 22.2235 159.632 22.2475 160.688C22.2715 161.744 22.3435 162.848 22.4635 164C21.2395 163.952 19.8595 163.928 18.3235 163.928C16.7875 163.904 15.4195 163.892 14.2195 163.892C13.5955 163.892 12.8035 163.892 11.8435 163.892C10.8835 163.892 9.83955 163.904 8.71155 163.928C7.58355 163.928 6.44355 163.94 5.29155 163.964C4.13955 163.964 3.05955 163.976 2.05155 164V163.28C2.79555 163.232 3.34755 163.136 3.70755 162.992C4.09155 162.848 4.34355 162.56 4.46355 162.128C4.60755 161.696 4.67955 161.048 4.67955 160.184V142.328C4.67955 141.44 4.60755 140.792 4.46355 140.384C4.34355 139.952 4.09155 139.664 3.70755 139.52C3.34755 139.352 2.79555 139.256 2.05155 139.232V138.512C3.08355 138.536 4.16355 138.56 5.29155 138.584C6.44355 138.584 7.57155 138.596 8.67555 138.62C9.80355 138.62 10.8475 138.62 11.8075 138.62C12.7915 138.62 13.5955 138.62 14.2195 138.62C15.3235 138.62 16.5715 138.62 17.9635 138.62C19.3795 138.596 20.6395 138.56 21.7435 138.512ZM16.3075 150.824C16.3075 150.824 16.3075 150.944 16.3075 151.184C16.3075 151.424 16.3075 151.544 16.3075 151.544H10.1155C10.1155 151.544 10.1155 151.424 10.1155 151.184C10.1155 150.944 10.1155 150.824 10.1155 150.824H16.3075ZM17.3515 146.072C17.2555 147.44 17.2075 148.484 17.2075 149.204C17.2315 149.924 17.2435 150.584 17.2435 151.184C17.2435 151.784 17.2555 152.444 17.2795 153.164C17.3035 153.884 17.3635 154.928 17.4595 156.296H16.6315C16.5115 155.432 16.2595 154.64 15.8755 153.92C15.4915 153.2 14.9755 152.624 14.3275 152.192C13.6795 151.76 12.8875 151.544 11.9515 151.544V150.824C12.6475 150.824 13.2595 150.68 13.7875 150.392C14.3155 150.08 14.7595 149.684 15.1195 149.204C15.5035 148.724 15.8155 148.208 16.0555 147.656C16.2955 147.104 16.4515 146.576 16.5235 146.072H17.3515ZM38.6492 144.848C39.7052 144.848 40.5452 144.98 41.1692 145.244C41.8172 145.508 42.3092 145.844 42.6452 146.252C43.0292 146.708 43.3052 147.296 43.4732 148.016C43.6652 148.736 43.7612 149.708 43.7612 150.932V160.652C43.7612 161.66 43.9172 162.344 44.2292 162.704C44.5652 163.064 45.1292 163.244 45.9212 163.244V164C45.4412 163.976 44.7212 163.952 43.7612 163.928C42.8252 163.88 41.9132 163.856 41.0252 163.856C40.0412 163.856 39.0932 163.88 38.1812 163.928C37.2692 163.952 36.5852 163.976 36.1292 164V163.244C36.8012 163.244 37.2692 163.064 37.5332 162.704C37.7972 162.344 37.9292 161.66 37.9292 160.652V149.204C37.9292 148.652 37.8692 148.184 37.7492 147.8C37.6292 147.392 37.4252 147.092 37.1372 146.9C36.8492 146.684 36.4412 146.576 35.9132 146.576C35.3612 146.576 34.8452 146.72 34.3652 147.008C33.9092 147.296 33.5372 147.704 33.2492 148.232C32.9852 148.736 32.8532 149.312 32.8532 149.96V160.652C32.8532 161.66 32.9852 162.344 33.2492 162.704C33.5132 163.064 33.9812 163.244 34.6532 163.244V164C34.1972 163.976 33.5372 163.952 32.6732 163.928C31.8092 163.88 30.9332 163.856 30.0452 163.856C29.0612 163.856 28.0772 163.88 27.0932 163.928C26.1092 163.952 25.3652 163.976 24.8612 164V163.244C25.6532 163.244 26.2052 163.064 26.5172 162.704C26.8532 162.344 27.0212 161.66 27.0212 160.652V149.276C27.0212 148.196 26.8652 147.404 26.5532 146.9C26.2412 146.372 25.6772 146.108 24.8612 146.108V145.352C25.6292 145.424 26.3732 145.46 27.0932 145.46C28.1732 145.46 29.1932 145.424 30.1532 145.352C31.1372 145.256 32.0372 145.124 32.8532 144.956V147.872C33.4292 146.768 34.2092 145.988 35.1932 145.532C36.2012 145.076 37.3532 144.848 38.6492 144.848ZM56.5823 144.848C57.5903 144.848 58.4903 144.956 59.2823 145.172C60.0743 145.364 60.7223 145.616 61.2263 145.928C61.8503 146.312 62.3543 146.804 62.7383 147.404C63.1223 148.004 63.3143 148.7 63.3143 149.492C63.3143 150.404 63.0143 151.172 62.4143 151.796C61.8143 152.396 61.0583 152.696 60.1463 152.696C59.2103 152.696 58.4663 152.42 57.9143 151.868C57.3863 151.316 57.1223 150.608 57.1223 149.744C57.1223 148.904 57.3863 148.196 57.9143 147.62C58.4423 147.044 59.0663 146.66 59.7863 146.468C59.5943 146.276 59.3423 146.12 59.0303 146C58.7423 145.88 58.3943 145.82 57.9863 145.82C57.1703 145.82 56.4863 146.06 55.9343 146.54C55.3823 146.996 54.9263 147.632 54.5663 148.448C54.2303 149.24 53.9783 150.14 53.8103 151.148C53.6663 152.132 53.5943 153.152 53.5943 154.208C53.5943 155.984 53.8223 157.376 54.2783 158.384C54.7583 159.368 55.3463 160.064 56.0423 160.472C56.7623 160.856 57.4943 161.048 58.2383 161.048C58.6223 161.048 59.0663 160.988 59.5703 160.868C60.0743 160.748 60.6023 160.496 61.1543 160.112C61.7303 159.728 62.2703 159.152 62.7743 158.384L63.3863 158.6C63.1223 159.536 62.6783 160.46 62.0543 161.372C61.4303 162.284 60.6263 163.04 59.6423 163.64C58.6583 164.216 57.4583 164.504 56.0423 164.504C54.4583 164.504 53.0183 164.18 51.7223 163.532C50.4503 162.884 49.4303 161.84 48.6623 160.4C47.8943 158.96 47.5103 157.076 47.5103 154.748C47.5103 152.492 47.9063 150.644 48.6983 149.204C49.4903 147.74 50.5703 146.648 51.9383 145.928C53.3303 145.208 54.8783 144.848 56.5823 144.848ZM72.9623 135.848V147.872C73.5623 146.768 74.3543 145.988 75.3383 145.532C76.3463 145.076 77.4983 144.848 78.7943 144.848C79.8503 144.848 80.6903 144.98 81.3143 145.244C81.9623 145.508 82.4543 145.844 82.7903 146.252C83.1743 146.708 83.4503 147.296 83.6183 148.016C83.7863 148.736 83.8703 149.708 83.8703 150.932V160.652C83.8703 161.66 84.0263 162.344 84.3383 162.704C84.6743 163.064 85.2383 163.244 86.0303 163.244V164C85.5743 163.976 84.8663 163.952 83.9063 163.928C82.9703 163.88 82.0463 163.856 81.1343 163.856C80.1743 163.856 79.2383 163.88 78.3263 163.928C77.4143 163.952 76.7183 163.976 76.2383 164V163.244C76.9103 163.244 77.3783 163.064 77.6423 162.704C77.9063 162.344 78.0383 161.66 78.0383 160.652V149.204C78.0383 148.652 77.9783 148.184 77.8583 147.8C77.7383 147.392 77.5343 147.092 77.2463 146.9C76.9823 146.684 76.5863 146.576 76.0583 146.576C75.5063 146.576 74.9903 146.72 74.5103 147.008C74.0543 147.272 73.6823 147.668 73.3943 148.196C73.1063 148.7 72.9623 149.288 72.9623 149.96V160.652C72.9623 161.66 73.0943 162.344 73.3583 162.704C73.6463 163.064 74.1143 163.244 74.7623 163.244V164C74.3303 163.976 73.6823 163.952 72.8183 163.928C71.9543 163.88 71.0663 163.856 70.1543 163.856C69.1943 163.856 68.2103 163.88 67.2023 163.928C66.2183 163.952 65.4743 163.976 64.9703 164V163.244C65.7623 163.244 66.3143 163.064 66.6263 162.704C66.9623 162.344 67.1303 161.66 67.1303 160.652V140.168C67.1303 139.088 66.9743 138.296 66.6623 137.792C66.3743 137.264 65.8103 137 64.9703 137V136.244C65.7383 136.316 66.4823 136.352 67.2023 136.352C68.3063 136.352 69.3383 136.316 70.2983 136.244C71.2583 136.148 72.1463 136.016 72.9623 135.848ZM92.1947 164.252C91.0907 164.252 90.1787 164.048 89.4587 163.64C88.7387 163.208 88.2107 162.644 87.8747 161.948C87.5387 161.252 87.3707 160.508 87.3707 159.716C87.3707 158.708 87.5987 157.88 88.0547 157.232C88.5347 156.584 89.1467 156.068 89.8907 155.684C90.6347 155.276 91.4147 154.94 92.2307 154.676C93.0467 154.412 93.8267 154.16 94.5707 153.92C95.3147 153.656 95.9147 153.356 96.3707 153.02C96.8267 152.66 97.0547 152.204 97.0547 151.652V148.664C97.0547 148.136 96.9707 147.644 96.8027 147.188C96.6587 146.708 96.3827 146.324 95.9747 146.036C95.5907 145.724 95.0507 145.568 94.3547 145.568C93.9227 145.568 93.5027 145.628 93.0947 145.748C92.6867 145.868 92.3267 146.06 92.0147 146.324C92.7827 146.588 93.3467 146.984 93.7067 147.512C94.0907 148.04 94.2827 148.628 94.2827 149.276C94.2827 150.164 93.9707 150.872 93.3467 151.4C92.7467 151.904 92.0267 152.156 91.1867 152.156C90.2747 152.156 89.5667 151.868 89.0627 151.292C88.5827 150.716 88.3427 150.02 88.3427 149.204C88.3427 148.484 88.5227 147.884 88.8827 147.404C89.2427 146.9 89.7707 146.444 90.4667 146.036C91.1627 145.628 92.0027 145.328 92.9867 145.136C93.9707 144.944 95.0147 144.848 96.1187 144.848C97.2467 144.848 98.2787 144.968 99.2147 145.208C100.175 145.424 100.991 145.868 101.663 146.54C102.191 147.092 102.527 147.764 102.671 148.556C102.815 149.348 102.887 150.356 102.887 151.58V161.3C102.887 161.9 102.935 162.32 103.031 162.56C103.151 162.776 103.331 162.884 103.571 162.884C103.787 162.884 103.991 162.824 104.183 162.704C104.375 162.584 104.567 162.452 104.759 162.308L105.155 162.92C104.627 163.352 104.003 163.688 103.283 163.928C102.563 164.144 101.783 164.252 100.943 164.252C99.9827 164.252 99.2267 164.132 98.6747 163.892C98.1467 163.628 97.7627 163.28 97.5227 162.848C97.3067 162.416 97.1867 161.936 97.1627 161.408C96.6347 162.272 95.9747 162.968 95.1827 163.496C94.3907 164 93.3947 164.252 92.1947 164.252ZM95.1827 161.66C95.5667 161.66 95.9027 161.588 96.1907 161.444C96.5027 161.276 96.7907 161 97.0547 160.616V153.128C96.8627 153.464 96.5987 153.788 96.2627 154.1C95.9507 154.388 95.6147 154.688 95.2547 155C94.8947 155.288 94.5467 155.612 94.2107 155.972C93.8987 156.332 93.6347 156.764 93.4187 157.268C93.2267 157.748 93.1307 158.336 93.1307 159.032C93.1307 159.968 93.3227 160.64 93.7067 161.048C94.0907 161.456 94.5827 161.66 95.1827 161.66ZM119.966 144.848C121.022 144.848 121.862 144.98 122.486 145.244C123.134 145.508 123.626 145.844 123.962 146.252C124.346 146.708 124.622 147.296 124.79 148.016C124.982 148.736 125.078 149.708 125.078 150.932V160.652C125.078 161.66 125.234 162.344 125.546 162.704C125.882 163.064 126.446 163.244 127.238 163.244V164C126.758 163.976 126.038 163.952 125.078 163.928C124.142 163.88 123.23 163.856 122.342 163.856C121.358 163.856 120.41 163.88 119.498 163.928C118.586 163.952 117.902 163.976 117.446 164V163.244C118.118 163.244 118.586 163.064 118.85 162.704C119.114 162.344 119.246 161.66 119.246 160.652V149.204C119.246 148.652 119.186 148.184 119.066 147.8C118.946 147.392 118.742 147.092 118.454 146.9C118.166 146.684 117.758 146.576 117.23 146.576C116.678 146.576 116.162 146.72 115.682 147.008C115.226 147.296 114.854 147.704 114.566 148.232C114.302 148.736 114.17 149.312 114.17 149.96V160.652C114.17 161.66 114.302 162.344 114.566 162.704C114.83 163.064 115.298 163.244 115.97 163.244V164C115.514 163.976 114.854 163.952 113.99 163.928C113.126 163.88 112.25 163.856 111.362 163.856C110.378 163.856 109.394 163.88 108.41 163.928C107.426 163.952 106.682 163.976 106.178 164V163.244C106.97 163.244 107.522 163.064 107.834 162.704C108.17 162.344 108.338 161.66 108.338 160.652V149.276C108.338 148.196 108.182 147.404 107.87 146.9C107.558 146.372 106.994 146.108 106.178 146.108V145.352C106.946 145.424 107.69 145.46 108.41 145.46C109.49 145.46 110.51 145.424 111.47 145.352C112.454 145.256 113.354 145.124 114.17 144.956V147.872C114.746 146.768 115.526 145.988 116.51 145.532C117.518 145.076 118.67 144.848 119.966 144.848ZM136.279 139.484V145.352H140.167V146.072H136.279V160.796C136.279 161.396 136.387 161.828 136.603 162.092C136.819 162.332 137.143 162.452 137.575 162.452C137.935 162.452 138.307 162.332 138.691 162.092C139.099 161.852 139.471 161.444 139.807 160.868L140.383 161.228C139.927 162.212 139.291 163.004 138.475 163.604C137.683 164.204 136.639 164.504 135.343 164.504C134.551 164.504 133.843 164.396 133.219 164.18C132.619 163.988 132.115 163.688 131.707 163.28C131.179 162.752 130.831 162.104 130.663 161.336C130.519 160.544 130.447 159.524 130.447 158.276V146.072H127.567V145.352H130.447V140.852C131.575 140.852 132.607 140.744 133.543 140.528C134.503 140.312 135.415 139.964 136.279 139.484ZM148.396 144.848C149.452 144.848 150.364 144.968 151.132 145.208C151.9 145.448 152.464 145.676 152.824 145.892C153.664 146.42 154.168 146.084 154.336 144.884H155.092C155.044 145.58 155.008 146.42 154.984 147.404C154.96 148.364 154.948 149.66 154.948 151.292H154.192C154.096 150.404 153.88 149.528 153.544 148.664C153.232 147.8 152.764 147.092 152.14 146.54C151.516 145.964 150.7 145.676 149.692 145.676C149.044 145.676 148.492 145.868 148.036 146.252C147.604 146.636 147.388 147.164 147.388 147.836C147.388 148.556 147.604 149.192 148.036 149.744C148.468 150.296 149.02 150.824 149.692 151.328C150.388 151.832 151.084 152.372 151.78 152.948C152.548 153.524 153.232 154.112 153.832 154.712C154.456 155.288 154.948 155.924 155.308 156.62C155.692 157.292 155.884 158.108 155.884 159.068C155.884 160.148 155.56 161.096 154.912 161.912C154.264 162.728 153.412 163.364 152.356 163.82C151.3 164.276 150.124 164.504 148.828 164.504C148.036 164.504 147.34 164.42 146.74 164.252C146.164 164.108 145.684 163.916 145.3 163.676C144.94 163.508 144.616 163.364 144.328 163.244C144.064 163.124 143.8 163.04 143.536 162.992C143.296 162.968 143.092 163.076 142.924 163.316C142.756 163.556 142.624 163.868 142.528 164.252H141.772C141.82 163.484 141.856 162.548 141.88 161.444C141.904 160.34 141.916 158.876 141.916 157.052H142.672C142.816 158.348 143.08 159.488 143.464 160.472C143.872 161.456 144.412 162.236 145.084 162.812C145.756 163.364 146.548 163.64 147.46 163.64C147.868 163.64 148.24 163.568 148.576 163.424C148.936 163.256 149.224 163.004 149.44 162.668C149.68 162.332 149.8 161.9 149.8 161.372C149.8 160.316 149.464 159.44 148.792 158.744C148.12 158.024 147.292 157.244 146.308 156.404C145.54 155.756 144.82 155.12 144.148 154.496C143.5 153.872 142.96 153.188 142.528 152.444C142.12 151.7 141.916 150.86 141.916 149.924C141.916 148.844 142.216 147.932 142.816 147.188C143.44 146.42 144.244 145.844 145.228 145.46C146.212 145.052 147.268 144.848 148.396 144.848Z" fill="black"/>
<defs>
<linearGradient id="paint0_linear_7_251" x1="79" y1="0" x2="79" y2="113" gradientUnits="userSpaceOnUse">
<stop stop-color="#D55555"/>
<stop offset="1" stop-color="#D5558B"/>
</linearGradient>
</defs>
</svg>
